<?xml version="1.0" encoding="utf-8" standalone="no"?>
<!DOCTYPE svg PUBLIC "-//W3C//DTD SVG 1.1//EN"
  "http://www.w3.org/Graphics/SVG/1.1/DTD/svg11.dtd">
<svg xmlns:xlink="http://www.w3.org/1999/xlink" width="460.8pt" height="345.6pt" viewBox="0 0 460.8 345.6" xmlns="http://www.w3.org/2000/svg" version="1.1">
 <metadata>
  <rdf:RDF xmlns:dc="http://purl.org/dc/elements/1.1/" xmlns:cc="http://creativecommons.org/ns#" xmlns:rdf="http://www.w3.org/1999/02/22-rdf-syntax-ns#">
   <cc:Work>
    <dc:type rdf:resource="http://purl.org/dc/dcmitype/StillImage"/>
    <dc:date>2023-07-20T21:46:32.819398</dc:date>
    <dc:format>image/svg+xml</dc:format>
    <dc:creator>
     <cc:Agent>
      <dc:title>Matplotlib v3.6.2, https://matplotlib.org/</dc:title>
     </cc:Agent>
    </dc:creator>
   </cc:Work>
  </rdf:RDF>
 </metadata>
 <defs>
  <style type="text/css">*{stroke-linejoin: round; stroke-linecap: butt}</style>
 </defs>
 <g id="figure_1">
  <g id="patch_1">
   <path d="M 0 345.6 
L 460.8 345.6 
L 460.8 0 
L 0 0 
z
" style="fill: #ffffff"/>
  </g>
  <g id="axes_1">
   <g id="patch_2">
    <path d="M 57.6 307.584 
L 414.72 307.584 
L 414.72 41.472 
L 57.6 41.472 
z
" style="fill: #ffffff"/>
   </g>
   <g id="matplotlib.axis_1">
    <g id="xtick_1">
     <g id="line2d_1">
      <defs>
       <path id="mfaf7bf5051" d="M 0 0 
L 0 3.5 
" style="stroke: #000000; stroke-width: 0.8"/>
      </defs>
      <g>
       <use xlink:href="#mfaf7bf5051" x="73.832727" y="307.584" style="stroke: #000000; stroke-width: 0.8"/>
      </g>
     </g>
     <g id="text_1">
      <!-- 0 -->
      <g transform="translate(70.651477 322.182437) scale(0.1 -0.1)">
       <defs>
        <path id="DejaVuSans-30" d="M 2034 4250 
Q 1547 4250 1301 3770 
Q 1056 3291 1056 2328 
Q 1056 1369 1301 889 
Q 1547 409 2034 409 
Q 2525 409 2770 889 
Q 3016 1369 3016 2328 
Q 3016 3291 2770 3770 
Q 2525 4250 2034 4250 
z
M 2034 4750 
Q 2819 4750 3233 4129 
Q 3647 3509 3647 2328 
Q 3647 1150 3233 529 
Q 2819 -91 2034 -91 
Q 1250 -91 836 529 
Q 422 1150 422 2328 
Q 422 3509 836 4129 
Q 1250 4750 2034 4750 
z
" transform="scale(0.015625)"/>
       </defs>
       <use xlink:href="#DejaVuSans-30"/>
      </g>
     </g>
    </g>
    <g id="xtick_2">
     <g id="line2d_2">
      <g>
       <use xlink:href="#mfaf7bf5051" x="117.12" y="307.584" style="stroke: #000000; stroke-width: 0.8"/>
      </g>
     </g>
     <g id="text_2">
      <!-- 20 -->
      <g transform="translate(110.7575 322.182437) scale(0.1 -0.1)">
       <defs>
        <path id="DejaVuSans-32" d="M 1228 531 
L 3431 531 
L 3431 0 
L 469 0 
L 469 531 
Q 828 903 1448 1529 
Q 2069 2156 2228 2338 
Q 2531 2678 2651 2914 
Q 2772 3150 2772 3378 
Q 2772 3750 2511 3984 
Q 2250 4219 1831 4219 
Q 1534 4219 1204 4116 
Q 875 4013 500 3803 
L 500 4441 
Q 881 4594 1212 4672 
Q 1544 4750 1819 4750 
Q 2544 4750 2975 4387 
Q 3406 4025 3406 3419 
Q 3406 3131 3298 2873 
Q 3191 2616 2906 2266 
Q 2828 2175 2409 1742 
Q 1991 1309 1228 531 
z
" transform="scale(0.015625)"/>
       </defs>
       <use xlink:href="#DejaVuSans-32"/>
       <use xlink:href="#DejaVuSans-30" x="63.623047"/>
      </g>
     </g>
    </g>
    <g id="xtick_3">
     <g id="line2d_3">
      <g>
       <use xlink:href="#mfaf7bf5051" x="160.407273" y="307.584" style="stroke: #000000; stroke-width: 0.8"/>
      </g>
     </g>
     <g id="text_3">
      <!-- 40 -->
      <g transform="translate(154.044773 322.182437) scale(0.1 -0.1)">
       <defs>
        <path id="DejaVuSans-34" d="M 2419 4116 
L 825 1625 
L 2419 1625 
L 2419 4116 
z
M 2253 4666 
L 3047 4666 
L 3047 1625 
L 3713 1625 
L 3713 1100 
L 3047 1100 
L 3047 0 
L 2419 0 
L 2419 1100 
L 313 1100 
L 313 1709 
L 2253 4666 
z
" transform="scale(0.015625)"/>
       </defs>
       <use xlink:href="#DejaVuSans-34"/>
       <use xlink:href="#DejaVuSans-30" x="63.623047"/>
      </g>
     </g>
    </g>
    <g id="xtick_4">
     <g id="line2d_4">
      <g>
       <use xlink:href="#mfaf7bf5051" x="203.694545" y="307.584" style="stroke: #000000; stroke-width: 0.8"/>
      </g>
     </g>
     <g id="text_4">
      <!-- 60 -->
      <g transform="translate(197.332045 322.182437) scale(0.1 -0.1)">
       <defs>
        <path id="DejaVuSans-36" d="M 2113 2584 
Q 1688 2584 1439 2293 
Q 1191 2003 1191 1497 
Q 1191 994 1439 701 
Q 1688 409 2113 409 
Q 2538 409 2786 701 
Q 3034 994 3034 1497 
Q 3034 2003 2786 2293 
Q 2538 2584 2113 2584 
z
M 3366 4563 
L 3366 3988 
Q 3128 4100 2886 4159 
Q 2644 4219 2406 4219 
Q 1781 4219 1451 3797 
Q 1122 3375 1075 2522 
Q 1259 2794 1537 2939 
Q 1816 3084 2150 3084 
Q 2853 3084 3261 2657 
Q 3669 2231 3669 1497 
Q 3669 778 3244 343 
Q 2819 -91 2113 -91 
Q 1303 -91 875 529 
Q 447 1150 447 2328 
Q 447 3434 972 4092 
Q 1497 4750 2381 4750 
Q 2619 4750 2861 4703 
Q 3103 4656 3366 4563 
z
" transform="scale(0.015625)"/>
       </defs>
       <use xlink:href="#DejaVuSans-36"/>
       <use xlink:href="#DejaVuSans-30" x="63.623047"/>
      </g>
     </g>
    </g>
    <g id="xtick_5">
     <g id="line2d_5">
      <g>
       <use xlink:href="#mfaf7bf5051" x="246.981818" y="307.584" style="stroke: #000000; stroke-width: 0.8"/>
      </g>
     </g>
     <g id="text_5">
      <!-- 80 -->
      <g transform="translate(240.619318 322.182437) scale(0.1 -0.1)">
       <defs>
        <path id="DejaVuSans-38" d="M 2034 2216 
Q 1584 2216 1326 1975 
Q 1069 1734 1069 1313 
Q 1069 891 1326 650 
Q 1584 409 2034 409 
Q 2484 409 2743 651 
Q 3003 894 3003 1313 
Q 3003 1734 2745 1975 
Q 2488 2216 2034 2216 
z
M 1403 2484 
Q 997 2584 770 2862 
Q 544 3141 544 3541 
Q 544 4100 942 4425 
Q 1341 4750 2034 4750 
Q 2731 4750 3128 4425 
Q 3525 4100 3525 3541 
Q 3525 3141 3298 2862 
Q 3072 2584 2669 2484 
Q 3125 2378 3379 2068 
Q 3634 1759 3634 1313 
Q 3634 634 3220 271 
Q 2806 -91 2034 -91 
Q 1263 -91 848 271 
Q 434 634 434 1313 
Q 434 1759 690 2068 
Q 947 2378 1403 2484 
z
M 1172 3481 
Q 1172 3119 1398 2916 
Q 1625 2713 2034 2713 
Q 2441 2713 2670 2916 
Q 2900 3119 2900 3481 
Q 2900 3844 2670 4047 
Q 2441 4250 2034 4250 
Q 1625 4250 1398 4047 
Q 1172 3844 1172 3481 
z
" transform="scale(0.015625)"/>
       </defs>
       <use xlink:href="#DejaVuSans-38"/>
       <use xlink:href="#DejaVuSans-30" x="63.623047"/>
      </g>
     </g>
    </g>
    <g id="xtick_6">
     <g id="line2d_6">
      <g>
       <use xlink:href="#mfaf7bf5051" x="290.269091" y="307.584" style="stroke: #000000; stroke-width: 0.8"/>
      </g>
     </g>
     <g id="text_6">
      <!-- 100 -->
      <g transform="translate(280.725341 322.182437) scale(0.1 -0.1)">
       <defs>
        <path id="DejaVuSans-31" d="M 794 531 
L 1825 531 
L 1825 4091 
L 703 3866 
L 703 4441 
L 1819 4666 
L 2450 4666 
L 2450 531 
L 3481 531 
L 3481 0 
L 794 0 
L 794 531 
z
" transform="scale(0.015625)"/>
       </defs>
       <use xlink:href="#DejaVuSans-31"/>
       <use xlink:href="#DejaVuSans-30" x="63.623047"/>
       <use xlink:href="#DejaVuSans-30" x="127.246094"/>
      </g>
     </g>
    </g>
    <g id="xtick_7">
     <g id="line2d_7">
      <g>
       <use xlink:href="#mfaf7bf5051" x="333.556364" y="307.584" style="stroke: #000000; stroke-width: 0.8"/>
      </g>
     </g>
     <g id="text_7">
      <!-- 120 -->
      <g transform="translate(324.012614 322.182437) scale(0.1 -0.1)">
       <use xlink:href="#DejaVuSans-31"/>
       <use xlink:href="#DejaVuSans-32" x="63.623047"/>
       <use xlink:href="#DejaVuSans-30" x="127.246094"/>
      </g>
     </g>
    </g>
    <g id="xtick_8">
     <g id="line2d_8">
      <g>
       <use xlink:href="#mfaf7bf5051" x="376.843636" y="307.584" style="stroke: #000000; stroke-width: 0.8"/>
      </g>
     </g>
     <g id="text_8">
      <!-- 140 -->
      <g transform="translate(367.299886 322.182437) scale(0.1 -0.1)">
       <use xlink:href="#DejaVuSans-31"/>
       <use xlink:href="#DejaVuSans-34" x="63.623047"/>
       <use xlink:href="#DejaVuSans-30" x="127.246094"/>
      </g>
     </g>
    </g>
    <g id="text_9">
     <!-- Distance (cm) -->
     <g transform="translate(201.187344 335.860562) scale(0.1 -0.1)">
      <defs>
       <path id="DejaVuSans-44" d="M 1259 4147 
L 1259 519 
L 2022 519 
Q 2988 519 3436 956 
Q 3884 1394 3884 2338 
Q 3884 3275 3436 3711 
Q 2988 4147 2022 4147 
L 1259 4147 
z
M 628 4666 
L 1925 4666 
Q 3281 4666 3915 4102 
Q 4550 3538 4550 2338 
Q 4550 1131 3912 565 
Q 3275 0 1925 0 
L 628 0 
L 628 4666 
z
" transform="scale(0.015625)"/>
       <path id="DejaVuSans-69" d="M 603 3500 
L 1178 3500 
L 1178 0 
L 603 0 
L 603 3500 
z
M 603 4863 
L 1178 4863 
L 1178 4134 
L 603 4134 
L 603 4863 
z
" transform="scale(0.015625)"/>
       <path id="DejaVuSans-73" d="M 2834 3397 
L 2834 2853 
Q 2591 2978 2328 3040 
Q 2066 3103 1784 3103 
Q 1356 3103 1142 2972 
Q 928 2841 928 2578 
Q 928 2378 1081 2264 
Q 1234 2150 1697 2047 
L 1894 2003 
Q 2506 1872 2764 1633 
Q 3022 1394 3022 966 
Q 3022 478 2636 193 
Q 2250 -91 1575 -91 
Q 1294 -91 989 -36 
Q 684 19 347 128 
L 347 722 
Q 666 556 975 473 
Q 1284 391 1588 391 
Q 1994 391 2212 530 
Q 2431 669 2431 922 
Q 2431 1156 2273 1281 
Q 2116 1406 1581 1522 
L 1381 1569 
Q 847 1681 609 1914 
Q 372 2147 372 2553 
Q 372 3047 722 3315 
Q 1072 3584 1716 3584 
Q 2034 3584 2315 3537 
Q 2597 3491 2834 3397 
z
" transform="scale(0.015625)"/>
       <path id="DejaVuSans-74" d="M 1172 4494 
L 1172 3500 
L 2356 3500 
L 2356 3053 
L 1172 3053 
L 1172 1153 
Q 1172 725 1289 603 
Q 1406 481 1766 481 
L 2356 481 
L 2356 0 
L 1766 0 
Q 1100 0 847 248 
Q 594 497 594 1153 
L 594 3053 
L 172 3053 
L 172 3500 
L 594 3500 
L 594 4494 
L 1172 4494 
z
" transform="scale(0.015625)"/>
       <path id="DejaVuSans-61" d="M 2194 1759 
Q 1497 1759 1228 1600 
Q 959 1441 959 1056 
Q 959 750 1161 570 
Q 1363 391 1709 391 
Q 2188 391 2477 730 
Q 2766 1069 2766 1631 
L 2766 1759 
L 2194 1759 
z
M 3341 1997 
L 3341 0 
L 2766 0 
L 2766 531 
Q 2569 213 2275 61 
Q 1981 -91 1556 -91 
Q 1019 -91 701 211 
Q 384 513 384 1019 
Q 384 1609 779 1909 
Q 1175 2209 1959 2209 
L 2766 2209 
L 2766 2266 
Q 2766 2663 2505 2880 
Q 2244 3097 1772 3097 
Q 1472 3097 1187 3025 
Q 903 2953 641 2809 
L 641 3341 
Q 956 3463 1253 3523 
Q 1550 3584 1831 3584 
Q 2591 3584 2966 3190 
Q 3341 2797 3341 1997 
z
" transform="scale(0.015625)"/>
       <path id="DejaVuSans-6e" d="M 3513 2113 
L 3513 0 
L 2938 0 
L 2938 2094 
Q 2938 2591 2744 2837 
Q 2550 3084 2163 3084 
Q 1697 3084 1428 2787 
Q 1159 2491 1159 1978 
L 1159 0 
L 581 0 
L 581 3500 
L 1159 3500 
L 1159 2956 
Q 1366 3272 1645 3428 
Q 1925 3584 2291 3584 
Q 2894 3584 3203 3211 
Q 3513 2838 3513 2113 
z
" transform="scale(0.015625)"/>
       <path id="DejaVuSans-63" d="M 3122 3366 
L 3122 2828 
Q 2878 2963 2633 3030 
Q 2388 3097 2138 3097 
Q 1578 3097 1268 2742 
Q 959 2388 959 1747 
Q 959 1106 1268 751 
Q 1578 397 2138 397 
Q 2388 397 2633 464 
Q 2878 531 3122 666 
L 3122 134 
Q 2881 22 2623 -34 
Q 2366 -91 2075 -91 
Q 1284 -91 818 406 
Q 353 903 353 1747 
Q 353 2603 823 3093 
Q 1294 3584 2113 3584 
Q 2378 3584 2631 3529 
Q 2884 3475 3122 3366 
z
" transform="scale(0.015625)"/>
       <path id="DejaVuSans-65" d="M 3597 1894 
L 3597 1613 
L 953 1613 
Q 991 1019 1311 708 
Q 1631 397 2203 397 
Q 2534 397 2845 478 
Q 3156 559 3463 722 
L 3463 178 
Q 3153 47 2828 -22 
Q 2503 -91 2169 -91 
Q 1331 -91 842 396 
Q 353 884 353 1716 
Q 353 2575 817 3079 
Q 1281 3584 2069 3584 
Q 2775 3584 3186 3129 
Q 3597 2675 3597 1894 
z
M 3022 2063 
Q 3016 2534 2758 2815 
Q 2500 3097 2075 3097 
Q 1594 3097 1305 2825 
Q 1016 2553 972 2059 
L 3022 2063 
z
" transform="scale(0.015625)"/>
       <path id="DejaVuSans-20" transform="scale(0.015625)"/>
       <path id="DejaVuSans-28" d="M 1984 4856 
Q 1566 4138 1362 3434 
Q 1159 2731 1159 2009 
Q 1159 1288 1364 580 
Q 1569 -128 1984 -844 
L 1484 -844 
Q 1016 -109 783 600 
Q 550 1309 550 2009 
Q 550 2706 781 3412 
Q 1013 4119 1484 4856 
L 1984 4856 
z
" transform="scale(0.015625)"/>
       <path id="DejaVuSans-6d" d="M 3328 2828 
Q 3544 3216 3844 3400 
Q 4144 3584 4550 3584 
Q 5097 3584 5394 3201 
Q 5691 2819 5691 2113 
L 5691 0 
L 5113 0 
L 5113 2094 
Q 5113 2597 4934 2840 
Q 4756 3084 4391 3084 
Q 3944 3084 3684 2787 
Q 3425 2491 3425 1978 
L 3425 0 
L 2847 0 
L 2847 2094 
Q 2847 2600 2669 2842 
Q 2491 3084 2119 3084 
Q 1678 3084 1418 2786 
Q 1159 2488 1159 1978 
L 1159 0 
L 581 0 
L 581 3500 
L 1159 3500 
L 1159 2956 
Q 1356 3278 1631 3431 
Q 1906 3584 2284 3584 
Q 2666 3584 2933 3390 
Q 3200 3197 3328 2828 
z
" transform="scale(0.015625)"/>
       <path id="DejaVuSans-29" d="M 513 4856 
L 1013 4856 
Q 1481 4119 1714 3412 
Q 1947 2706 1947 2009 
Q 1947 1309 1714 600 
Q 1481 -109 1013 -844 
L 513 -844 
Q 928 -128 1133 580 
Q 1338 1288 1338 2009 
Q 1338 2731 1133 3434 
Q 928 4138 513 4856 
z
" transform="scale(0.015625)"/>
      </defs>
      <use xlink:href="#DejaVuSans-44"/>
      <use xlink:href="#DejaVuSans-69" x="77.001953"/>
      <use xlink:href="#DejaVuSans-73" x="104.785156"/>
      <use xlink:href="#DejaVuSans-74" x="156.884766"/>
      <use xlink:href="#DejaVuSans-61" x="196.09375"/>
      <use xlink:href="#DejaVuSans-6e" x="257.373047"/>
      <use xlink:href="#DejaVuSans-63" x="320.751953"/>
      <use xlink:href="#DejaVuSans-65" x="375.732422"/>
      <use xlink:href="#DejaVuSans-20" x="437.255859"/>
      <use xlink:href="#DejaVuSans-28" x="469.042969"/>
      <use xlink:href="#DejaVuSans-63" x="508.056641"/>
      <use xlink:href="#DejaVuSans-6d" x="563.037109"/>
      <use xlink:href="#DejaVuSans-29" x="660.449219"/>
     </g>
    </g>
   </g>
   <g id="matplotlib.axis_2">
    <g id="ytick_1">
     <g id="line2d_9">
      <defs>
       <path id="m3950d08334" d="M 0 0 
L -3.5 0 
" style="stroke: #000000; stroke-width: 0.8"/>
      </defs>
      <g>
       <use xlink:href="#m3950d08334" x="57.6" y="295.488" style="stroke: #000000; stroke-width: 0.8"/>
      </g>
     </g>
     <g id="text_10">
      <!-- 0 -->
      <g transform="translate(44.2375 299.287219) scale(0.1 -0.1)">
       <use xlink:href="#DejaVuSans-30"/>
      </g>
     </g>
    </g>
    <g id="ytick_2">
     <g id="line2d_10">
      <g>
       <use xlink:href="#m3950d08334" x="57.6" y="247.104" style="stroke: #000000; stroke-width: 0.8"/>
      </g>
     </g>
     <g id="text_11">
      <!-- 20 -->
      <g transform="translate(37.875 250.903219) scale(0.1 -0.1)">
       <use xlink:href="#DejaVuSans-32"/>
       <use xlink:href="#DejaVuSans-30" x="63.623047"/>
      </g>
     </g>
    </g>
    <g id="ytick_3">
     <g id="line2d_11">
      <g>
       <use xlink:href="#m3950d08334" x="57.6" y="198.72" style="stroke: #000000; stroke-width: 0.8"/>
      </g>
     </g>
     <g id="text_12">
      <!-- 40 -->
      <g transform="translate(37.875 202.519219) scale(0.1 -0.1)">
       <use xlink:href="#DejaVuSans-34"/>
       <use xlink:href="#DejaVuSans-30" x="63.623047"/>
      </g>
     </g>
    </g>
    <g id="ytick_4">
     <g id="line2d_12">
      <g>
       <use xlink:href="#m3950d08334" x="57.6" y="150.336" style="stroke: #000000; stroke-width: 0.8"/>
      </g>
     </g>
     <g id="text_13">
      <!-- 60 -->
      <g transform="translate(37.875 154.135219) scale(0.1 -0.1)">
       <use xlink:href="#DejaVuSans-36"/>
       <use xlink:href="#DejaVuSans-30" x="63.623047"/>
      </g>
     </g>
    </g>
    <g id="ytick_5">
     <g id="line2d_13">
      <g>
       <use xlink:href="#m3950d08334" x="57.6" y="101.952" style="stroke: #000000; stroke-width: 0.8"/>
      </g>
     </g>
     <g id="text_14">
      <!-- 80 -->
      <g transform="translate(37.875 105.751219) scale(0.1 -0.1)">
       <use xlink:href="#DejaVuSans-38"/>
       <use xlink:href="#DejaVuSans-30" x="63.623047"/>
      </g>
     </g>
    </g>
    <g id="ytick_6">
     <g id="line2d_14">
      <g>
       <use xlink:href="#m3950d08334" x="57.6" y="53.568" style="stroke: #000000; stroke-width: 0.8"/>
      </g>
     </g>
     <g id="text_15">
      <!-- 100 -->
      <g transform="translate(31.5125 57.367219) scale(0.1 -0.1)">
       <use xlink:href="#DejaVuSans-31"/>
       <use xlink:href="#DejaVuSans-30" x="63.623047"/>
       <use xlink:href="#DejaVuSans-30" x="127.246094"/>
      </g>
     </g>
    </g>
    <g id="text_16">
     <!-- Temperature (C) -->
     <g transform="translate(25.432812 215.179563) rotate(-90) scale(0.1 -0.1)">
      <defs>
       <path id="DejaVuSans-54" d="M -19 4666 
L 3928 4666 
L 3928 4134 
L 2272 4134 
L 2272 0 
L 1638 0 
L 1638 4134 
L -19 4134 
L -19 4666 
z
" transform="scale(0.015625)"/>
       <path id="DejaVuSans-70" d="M 1159 525 
L 1159 -1331 
L 581 -1331 
L 581 3500 
L 1159 3500 
L 1159 2969 
Q 1341 3281 1617 3432 
Q 1894 3584 2278 3584 
Q 2916 3584 3314 3078 
Q 3713 2572 3713 1747 
Q 3713 922 3314 415 
Q 2916 -91 2278 -91 
Q 1894 -91 1617 61 
Q 1341 213 1159 525 
z
M 3116 1747 
Q 3116 2381 2855 2742 
Q 2594 3103 2138 3103 
Q 1681 3103 1420 2742 
Q 1159 2381 1159 1747 
Q 1159 1113 1420 752 
Q 1681 391 2138 391 
Q 2594 391 2855 752 
Q 3116 1113 3116 1747 
z
" transform="scale(0.015625)"/>
       <path id="DejaVuSans-72" d="M 2631 2963 
Q 2534 3019 2420 3045 
Q 2306 3072 2169 3072 
Q 1681 3072 1420 2755 
Q 1159 2438 1159 1844 
L 1159 0 
L 581 0 
L 581 3500 
L 1159 3500 
L 1159 2956 
Q 1341 3275 1631 3429 
Q 1922 3584 2338 3584 
Q 2397 3584 2469 3576 
Q 2541 3569 2628 3553 
L 2631 2963 
z
" transform="scale(0.015625)"/>
       <path id="DejaVuSans-75" d="M 544 1381 
L 544 3500 
L 1119 3500 
L 1119 1403 
Q 1119 906 1312 657 
Q 1506 409 1894 409 
Q 2359 409 2629 706 
Q 2900 1003 2900 1516 
L 2900 3500 
L 3475 3500 
L 3475 0 
L 2900 0 
L 2900 538 
Q 2691 219 2414 64 
Q 2138 -91 1772 -91 
Q 1169 -91 856 284 
Q 544 659 544 1381 
z
M 1991 3584 
L 1991 3584 
z
" transform="scale(0.015625)"/>
       <path id="DejaVuSans-43" d="M 4122 4306 
L 4122 3641 
Q 3803 3938 3442 4084 
Q 3081 4231 2675 4231 
Q 1875 4231 1450 3742 
Q 1025 3253 1025 2328 
Q 1025 1406 1450 917 
Q 1875 428 2675 428 
Q 3081 428 3442 575 
Q 3803 722 4122 1019 
L 4122 359 
Q 3791 134 3420 21 
Q 3050 -91 2638 -91 
Q 1578 -91 968 557 
Q 359 1206 359 2328 
Q 359 3453 968 4101 
Q 1578 4750 2638 4750 
Q 3056 4750 3426 4639 
Q 3797 4528 4122 4306 
z
" transform="scale(0.015625)"/>
      </defs>
      <use xlink:href="#DejaVuSans-54"/>
      <use xlink:href="#DejaVuSans-65" x="44.083984"/>
      <use xlink:href="#DejaVuSans-6d" x="105.607422"/>
      <use xlink:href="#DejaVuSans-70" x="203.019531"/>
      <use xlink:href="#DejaVuSans-65" x="266.496094"/>
      <use xlink:href="#DejaVuSans-72" x="328.019531"/>
      <use xlink:href="#DejaVuSans-61" x="369.132812"/>
      <use xlink:href="#DejaVuSans-74" x="430.412109"/>
      <use xlink:href="#DejaVuSans-75" x="469.621094"/>
      <use xlink:href="#DejaVuSans-72" x="533"/>
      <use xlink:href="#DejaVuSans-65" x="571.863281"/>
      <use xlink:href="#DejaVuSans-20" x="633.386719"/>
      <use xlink:href="#DejaVuSans-28" x="665.173828"/>
      <use xlink:href="#DejaVuSans-43" x="704.1875"/>
      <use xlink:href="#DejaVuSans-29" x="774.011719"/>
     </g>
    </g>
   </g>
   <g id="line2d_15">
    <path d="M 73.832727 295.488 
L 75.997091 61.802173 
L 78.161455 53.568 
L 394.158545 53.568 
L 396.322909 61.802173 
L 398.487273 295.488 
L 398.487273 295.488 
" clip-path="url(#p0c631c572b)" style="fill: none; stroke: #1f77b4; stroke-width: 1.5; stroke-linecap: square"/>
   </g>
   <g id="line2d_16">
    <path d="M 73.832727 295.488 
L 80.325818 243.802963 
L 84.654545 211.170219 
L 88.983273 181.092272 
L 91.147636 167.236974 
L 93.312 154.257918 
L 95.476364 142.198437 
L 97.640727 131.084345 
L 99.805091 120.924636 
L 101.969455 111.712669 
L 104.133818 103.427724 
L 106.298182 96.036854 
L 108.462545 89.496931 
L 110.626909 83.756776 
L 112.791273 78.759288 
L 114.955636 74.443502 
L 117.12 70.746484 
L 119.284364 67.605034 
L 121.448727 64.957147 
L 123.613091 62.74322 
L 125.777455 60.906997 
L 127.941818 59.396255 
L 130.106182 58.163258 
L 132.270545 57.164993 
L 134.434909 56.363232 
L 136.599273 55.72443 
L 140.928 54.823617 
L 145.256727 54.277988 
L 149.585455 53.957829 
L 156.078545 53.718072 
L 166.900364 53.594375 
L 201.530182 53.568029 
L 314.077091 53.675571 
L 320.570182 53.853684 
L 324.898909 54.096033 
L 329.227636 54.51565 
L 333.556364 55.219522 
L 335.720727 55.72443 
L 337.885091 56.363232 
L 340.049455 57.164993 
L 342.213818 58.163258 
L 344.378182 59.396255 
L 346.542545 60.906997 
L 348.706909 62.74322 
L 350.871273 64.957147 
L 353.035636 67.605034 
L 355.2 70.746484 
L 357.364364 74.443502 
L 359.528727 78.759288 
L 361.693091 83.756776 
L 363.857455 89.496931 
L 366.021818 96.036854 
L 368.186182 103.427724 
L 370.350545 111.712669 
L 372.514909 120.924636 
L 374.679273 131.084345 
L 376.843636 142.198437 
L 379.008 154.257918 
L 381.172364 167.236974 
L 383.336727 181.092272 
L 387.665455 211.170219 
L 391.994182 243.802963 
L 398.487273 295.488 
L 398.487273 295.488 
" clip-path="url(#p0c631c572b)" style="fill: none; stroke: #ff7f0e; stroke-width: 1.5; stroke-linecap: square"/>
   </g>
   <g id="line2d_17">
    <path d="M 73.832727 295.488 
L 82.490182 246.695787 
L 86.818909 223.275488 
L 91.147636 200.973833 
L 95.476364 180.080949 
L 99.805091 160.824426 
L 104.133818 143.363094 
L 106.298182 135.336 
L 108.462545 127.785545 
L 110.626909 120.71232 
L 112.791273 114.113112 
L 114.955636 107.981192 
L 117.12 102.306635 
L 119.284364 97.07667 
L 121.448727 92.276052 
L 123.613091 87.887433 
L 125.777455 83.891749 
L 127.941818 80.268586 
L 130.106182 76.996549 
L 132.270545 74.053598 
L 134.434909 71.417371 
L 136.599273 69.065473 
L 138.763636 66.975744 
L 140.928 65.12648 
L 143.092364 63.49664 
L 145.256727 62.066002 
L 147.421091 60.815301 
L 149.585455 59.726327 
L 151.749818 58.782002 
L 156.078545 57.264876 
L 160.407273 56.151043 
L 164.736 55.3464 
L 169.064727 54.774423 
L 175.557818 54.223539 
L 182.050909 53.912432 
L 192.872727 53.677318 
L 210.187636 53.582331 
L 268.625455 53.599578 
L 283.776 53.742967 
L 292.433455 53.996444 
L 298.926545 54.374337 
L 303.255273 54.774423 
L 307.584 55.3464 
L 311.912727 56.151043 
L 316.241455 57.264876 
L 320.570182 58.782002 
L 322.734545 59.726327 
L 324.898909 60.815301 
L 327.063273 62.066002 
L 329.227636 63.49664 
L 331.392 65.12648 
L 333.556364 66.975744 
L 335.720727 69.065473 
L 337.885091 71.417371 
L 340.049455 74.053598 
L 342.213818 76.996549 
L 344.378182 80.268586 
L 346.542545 83.891749 
L 348.706909 87.887433 
L 350.871273 92.276052 
L 353.035636 97.07667 
L 355.2 102.306635 
L 357.364364 107.981192 
L 359.528727 114.113112 
L 361.693091 120.71232 
L 363.857455 127.785545 
L 366.021818 135.336 
L 368.186182 143.363094 
L 370.350545 151.862192 
L 374.679273 170.236563 
L 379.008 190.335508 
L 383.336727 211.965337 
L 387.665455 234.866116 
L 394.158545 270.892884 
L 398.487273 295.488 
L 398.487273 295.488 
" clip-path="url(#p0c631c572b)" style="fill: none; stroke: #2ca02c; stroke-width: 1.5; stroke-linecap: square"/>
   </g>
   <g id="line2d_18">
    <path d="M 73.832727 295.488 
L 82.490182 255.506268 
L 88.983273 226.547554 
L 93.312 208.0981 
L 97.640727 190.529984 
L 101.969455 173.982048 
L 106.298182 158.563623 
L 110.626909 144.352955 
L 114.955636 131.397041 
L 119.284364 119.712767 
L 121.448727 114.345082 
L 123.613091 109.289196 
L 125.777455 104.539922 
L 127.941818 100.090769 
L 130.106182 95.934081 
L 132.270545 92.061165 
L 134.434909 88.462435 
L 136.599273 85.12755 
L 138.763636 82.045542 
L 140.928 79.204959 
L 143.092364 76.593984 
L 145.256727 74.200562 
L 147.421091 72.012509 
L 149.585455 70.017623 
L 151.749818 68.203776 
L 153.914182 66.559003 
L 156.078545 65.071583 
L 158.242909 63.730103 
L 162.571636 61.441198 
L 166.900364 59.609155 
L 171.229091 58.158572 
L 175.557818 57.022382 
L 179.886545 56.142019 
L 184.215273 55.46722 
L 190.708364 54.749623 
L 197.201455 54.287045 
L 205.858909 53.926593 
L 216.680727 53.712272 
L 233.995636 53.61428 
L 255.639273 53.712272 
L 268.625455 53.996176 
L 277.282909 54.418603 
L 283.776 54.955555 
L 288.104727 55.46722 
L 292.433455 56.142019 
L 296.762182 57.022382 
L 301.090909 58.158572 
L 305.419636 59.609155 
L 309.748364 61.441198 
L 311.912727 62.523517 
L 314.077091 63.730103 
L 316.241455 65.071583 
L 318.405818 66.559003 
L 320.570182 68.203776 
L 322.734545 70.017623 
L 324.898909 72.012509 
L 327.063273 74.200562 
L 329.227636 76.593984 
L 331.392 79.204959 
L 333.556364 82.045542 
L 335.720727 85.12755 
L 337.885091 88.462435 
L 340.049455 92.061165 
L 342.213818 95.934081 
L 344.378182 100.090769 
L 346.542545 104.539922 
L 348.706909 109.289196 
L 350.871273 114.345082 
L 353.035636 119.712767 
L 355.2 125.396014 
L 359.528727 137.716414 
L 363.857455 151.303657 
L 368.186182 166.126019 
L 372.514909 182.120943 
L 376.843636 199.194533 
L 381.172364 217.222418 
L 385.501091 236.052031 
L 391.994182 265.406754 
L 398.487273 295.488 
L 398.487273 295.488 
" clip-path="url(#p0c631c572b)" style="fill: none; stroke: #d62728; stroke-width: 1.5; stroke-linecap: square"/>
   </g>
   <g id="line2d_19">
    <path d="M 73.832727 295.488 
L 84.654545 252.26055 
L 91.147636 227.22476 
L 95.476364 211.174759 
L 99.805091 195.766339 
L 104.133818 181.094035 
L 108.462545 167.236184 
L 112.791273 154.253896 
L 117.12 142.190637 
L 121.448727 131.072381 
L 125.777455 120.908312 
L 130.106182 111.691981 
L 134.434909 103.402858 
L 138.763636 96.008172 
L 140.928 92.633153 
L 143.092364 89.464944 
L 145.256727 86.496927 
L 147.421091 83.722111 
L 149.585455 81.133201 
L 151.749818 78.722656 
L 153.914182 76.482757 
L 156.078545 74.405658 
L 160.407273 70.708194 
L 164.736 67.567044 
L 169.064727 64.920165 
L 173.393455 62.707899 
L 177.722182 60.873934 
L 182.050909 59.366003 
L 186.379636 58.136351 
L 190.708364 57.141989 
L 195.037091 56.344775 
L 201.530182 55.446866 
L 208.023273 54.824997 
L 214.516364 54.406762 
L 223.173818 54.075458 
L 233.995636 53.916457 
L 244.817455 53.982719 
L 253.474909 54.213854 
L 262.132364 54.665972 
L 268.625455 55.212893 
L 275.118545 56.009487 
L 279.447273 56.720935 
L 283.776 57.612256 
L 288.104727 58.719192 
L 292.433455 60.082308 
L 296.762182 61.746997 
L 301.090909 63.763312 
L 305.419636 66.185618 
L 309.748364 69.072 
L 314.077091 72.483447 
L 316.241455 74.405658 
L 318.405818 76.482757 
L 320.570182 78.722656 
L 322.734545 81.133201 
L 324.898909 83.722111 
L 327.063273 86.496927 
L 329.227636 89.464944 
L 331.392 92.633153 
L 333.556364 96.008172 
L 335.720727 99.596182 
L 340.049455 107.433303 
L 344.378182 116.182653 
L 348.706909 125.871127 
L 353.035636 136.512427 
L 357.364364 148.10536 
L 361.693091 160.632463 
L 366.021818 174.059072 
L 370.350545 188.332882 
L 374.679273 203.384079 
L 379.008 219.126063 
L 385.501091 243.807218 
L 391.994182 269.410621 
L 398.487273 295.488 
L 398.487273 295.488 
" clip-path="url(#p0c631c572b)" style="fill: none; stroke: #9467bd; stroke-width: 1.5; stroke-linecap: square"/>
   </g>
   <g id="line2d_20">
    <path d="M 73.832727 295.488 
L 84.654545 256.759004 
L 91.147636 234.169519 
L 97.640727 212.447092 
L 101.969455 198.582848 
L 106.298182 185.294536 
L 110.626909 172.641084 
L 114.955636 160.670539 
L 119.284364 149.419704 
L 123.613091 138.914085 
L 127.941818 129.168122 
L 132.270545 120.185686 
L 136.599273 111.960798 
L 140.928 104.478551 
L 145.256727 97.716164 
L 149.585455 91.644143 
L 153.914182 86.227501 
L 158.242909 81.42698 
L 162.571636 77.200263 
L 166.900364 73.50311 
L 171.229091 70.290422 
L 175.557818 67.517191 
L 179.886545 65.139332 
L 184.215273 63.114387 
L 188.544 61.402101 
L 192.872727 59.964873 
L 197.201455 58.768091 
L 201.530182 57.78036 
L 205.858909 56.973648 
L 212.352 56.050112 
L 218.845091 55.410761 
L 225.338182 55.004158 
L 231.831273 54.795529 
L 238.324364 54.766312 
L 244.817455 54.913865 
L 251.310545 55.251421 
L 257.803636 55.808307 
L 264.296727 56.630351 
L 268.625455 57.355995 
L 272.954182 58.249926 
L 277.282909 59.338466 
L 281.611636 60.651342 
L 285.940364 62.221578 
L 290.269091 64.085318 
L 294.597818 66.281539 
L 298.926545 68.85166 
L 303.255273 71.839033 
L 307.584 75.288301 
L 311.912727 79.244629 
L 316.241455 83.752812 
L 320.570182 88.856267 
L 324.898909 94.59593 
L 329.227636 101.009075 
L 333.556364 108.128097 
L 337.885091 115.979282 
L 342.213818 124.581616 
L 346.542545 133.945664 
L 350.871273 144.072585 
L 355.2 154.9533 
L 359.528727 166.567882 
L 363.857455 178.885189 
L 368.186182 191.862769 
L 372.514909 205.447071 
L 379.008 226.818125 
L 385.501091 249.151201 
L 394.158545 279.907896 
L 398.487273 295.488 
L 398.487273 295.488 
" clip-path="url(#p0c631c572b)" style="fill: none; stroke: #8c564b; stroke-width: 1.5; stroke-linecap: square"/>
   </g>
   <g id="line2d_21">
    <path d="M 73.832727 295.488 
L 86.818909 253.120044 
L 93.312 232.57451 
L 99.805091 212.769313 
L 106.298182 193.909896 
L 110.626909 181.949381 
L 114.955636 170.529324 
L 119.284364 159.684463 
L 123.613091 149.441706 
L 127.941818 139.820123 
L 132.270545 130.831103 
L 136.599273 122.478661 
L 140.928 114.759888 
L 145.256727 107.665508 
L 149.585455 101.180533 
L 153.914182 95.284981 
L 158.242909 89.954649 
L 162.571636 85.161896 
L 166.900364 80.876437 
L 171.229091 77.066111 
L 175.557818 73.697625 
L 179.886545 70.737236 
L 184.215273 68.151388 
L 188.544 65.907277 
L 192.872727 63.973349 
L 197.201455 62.319733 
L 201.530182 60.918598 
L 205.858909 59.744454 
L 210.187636 58.774392 
L 214.516364 57.988272 
L 218.845091 57.368864 
L 225.338182 56.722093 
L 231.831273 56.384313 
L 238.324364 56.336659 
L 244.817455 56.576431 
L 251.310545 57.117116 
L 255.639273 57.658689 
L 259.968 58.359486 
L 264.296727 59.235238 
L 268.625455 60.304647 
L 272.954182 61.589256 
L 277.282909 63.113293 
L 281.611636 64.903451 
L 285.940364 66.988622 
L 290.269091 69.399569 
L 294.597818 72.168527 
L 298.926545 75.328744 
L 303.255273 78.913945 
L 307.584 82.95773 
L 311.912727 87.492915 
L 316.241455 92.550819 
L 320.570182 98.160502 
L 324.898909 104.347985 
L 329.227636 111.13546 
L 333.556364 118.540504 
L 337.885091 126.575335 
L 342.213818 135.246124 
L 346.542545 144.552379 
L 350.871273 154.486447 
L 355.2 165.033128 
L 359.528727 176.169442 
L 363.857455 187.864554 
L 368.186182 200.079871 
L 374.679273 219.275493 
L 381.172364 239.351725 
L 389.829818 267.114906 
L 398.487273 295.488 
L 398.487273 295.488 
" clip-path="url(#p0c631c572b)" style="fill: none; stroke: #e377c2; stroke-width: 1.5; stroke-linecap: square"/>
   </g>
   <g id="line2d_22">
    <path d="M 73.832727 295.488 
L 86.818909 256.21768 
L 95.476364 230.838214 
L 101.969455 212.539961 
L 108.462545 195.054759 
L 112.791273 183.91901 
L 117.12 173.241071 
L 121.448727 163.049814 
L 125.777455 153.368392 
L 130.106182 144.214201 
L 134.434909 135.598954 
L 138.763636 127.528853 
L 143.092364 120.004855 
L 147.421091 113.023018 
L 151.749818 106.574917 
L 156.078545 100.64811 
L 160.407273 95.226658 
L 164.736 90.291656 
L 169.064727 85.821797 
L 173.393455 81.793925 
L 177.722182 78.183587 
L 182.050909 74.965567 
L 186.379636 72.114393 
L 190.708364 69.604809 
L 195.037091 67.412218 
L 199.365818 65.513075 
L 203.694545 63.885248 
L 208.023273 62.508328 
L 212.352 61.3639 
L 216.680727 60.435779 
L 221.009455 59.710195 
L 225.338182 59.175955 
L 229.666909 58.824562 
L 233.995636 58.650301 
L 238.324364 58.650301 
L 242.653091 58.824562 
L 246.981818 59.175955 
L 251.310545 59.710195 
L 255.639273 60.435779 
L 259.968 61.3639 
L 264.296727 62.508328 
L 268.625455 63.885248 
L 272.954182 65.513075 
L 277.282909 67.412218 
L 281.611636 69.604809 
L 285.940364 72.114393 
L 290.269091 74.965567 
L 294.597818 78.183587 
L 298.926545 81.793925 
L 303.255273 85.821797 
L 307.584 90.291656 
L 311.912727 95.226658 
L 316.241455 100.64811 
L 320.570182 106.574917 
L 324.898909 113.023018 
L 329.227636 120.004855 
L 333.556364 127.528853 
L 337.885091 135.598954 
L 342.213818 144.214201 
L 346.542545 153.368392 
L 350.871273 163.049814 
L 355.2 173.241071 
L 359.528727 183.91901 
L 363.857455 195.054759 
L 370.350545 212.539961 
L 376.843636 230.838214 
L 383.336727 249.787496 
L 391.994182 275.749877 
L 398.487273 295.488 
L 398.487273 295.488 
" clip-path="url(#p0c631c572b)" style="fill: none; stroke: #7f7f7f; stroke-width: 1.5; stroke-linecap: square"/>
   </g>
   <g id="line2d_23">
    <path d="M 73.832727 295.488 
L 86.818909 258.722789 
L 95.476364 234.870235 
L 101.969455 217.588155 
L 108.462545 200.980367 
L 114.955636 185.166663 
L 119.284364 175.115624 
L 123.613091 165.486835 
L 127.941818 156.300372 
L 132.270545 147.571932 
L 136.599273 139.312875 
L 140.928 131.530324 
L 145.256727 124.227348 
L 149.585455 117.403188 
L 153.914182 111.053541 
L 158.242909 105.17089 
L 162.571636 99.744868 
L 166.900364 94.762644 
L 171.229091 90.209335 
L 175.557818 86.068421 
L 179.886545 82.322168 
L 184.215273 78.952044 
L 188.544 75.939124 
L 192.872727 73.264478 
L 197.201455 70.909541 
L 201.530182 68.856454 
L 205.858909 67.088377 
L 210.187636 65.589778 
L 214.516364 64.346684 
L 218.845091 63.346896 
L 223.173818 62.580184 
L 227.502545 62.03843 
L 231.831273 61.715755 
L 236.16 61.608594 
L 240.488727 61.715755 
L 244.817455 62.03843 
L 249.146182 62.580184 
L 253.474909 63.346896 
L 257.803636 64.346684 
L 262.132364 65.589778 
L 266.461091 67.088377 
L 270.789818 68.856454 
L 275.118545 70.909541 
L 279.447273 73.264478 
L 283.776 75.939124 
L 288.104727 78.952044 
L 292.433455 82.322168 
L 296.762182 86.068421 
L 301.090909 90.209335 
L 305.419636 94.762644 
L 309.748364 99.744868 
L 314.077091 105.17089 
L 318.405818 111.053541 
L 322.734545 117.403188 
L 327.063273 124.227348 
L 331.392 131.530324 
L 335.720727 139.312875 
L 340.049455 147.571932 
L 344.378182 156.300372 
L 348.706909 165.486835 
L 353.035636 175.115624 
L 357.364364 185.166663 
L 363.857455 200.980367 
L 370.350545 217.588155 
L 376.843636 234.870235 
L 385.501091 258.722789 
L 396.322909 289.323958 
L 398.487273 295.488 
L 398.487273 295.488 
" clip-path="url(#p0c631c572b)" style="fill: none; stroke: #bcbd22; stroke-width: 1.5; stroke-linecap: square"/>
   </g>
   <g id="line2d_24">
    <path d="M 73.832727 295.488 
L 88.983273 255.102576 
L 97.640727 232.706349 
L 104.133818 216.469537 
L 110.626909 200.840768 
L 117.12 185.920264 
L 121.448727 176.409257 
L 125.777455 167.272057 
L 130.106182 158.526301 
L 134.434909 150.186214 
L 138.763636 142.262634 
L 143.092364 134.763085 
L 147.421091 127.6919 
L 151.749818 121.05039 
L 156.078545 114.83705 
L 160.407273 109.047799 
L 164.736 103.676251 
L 169.064727 98.714008 
L 173.393455 94.150968 
L 177.722182 89.975647 
L 182.050909 86.175507 
L 186.379636 82.737283 
L 190.708364 79.647303 
L 195.037091 76.891807 
L 199.365818 74.457242 
L 203.694545 72.330546 
L 208.023273 70.499412 
L 212.352 68.952526 
L 216.680727 67.679781 
L 221.009455 66.672464 
L 225.338182 65.923413 
L 229.666909 65.427142 
L 233.995636 65.179942 
L 238.324364 65.179942 
L 242.653091 65.427142 
L 246.981818 65.923413 
L 251.310545 66.672464 
L 255.639273 67.679781 
L 259.968 68.952526 
L 264.296727 70.499412 
L 268.625455 72.330546 
L 272.954182 74.457242 
L 277.282909 76.891807 
L 281.611636 79.647303 
L 285.940364 82.737283 
L 290.269091 86.175507 
L 294.597818 89.975647 
L 298.926545 94.150968 
L 303.255273 98.714008 
L 307.584 103.676251 
L 311.912727 109.047799 
L 316.241455 114.83705 
L 320.570182 121.05039 
L 324.898909 127.6919 
L 329.227636 134.763085 
L 333.556364 142.262634 
L 337.885091 150.186214 
L 342.213818 158.526301 
L 346.542545 167.272057 
L 350.871273 176.409257 
L 355.2 185.920264 
L 361.693091 200.840768 
L 368.186182 216.469537 
L 374.679273 232.706349 
L 383.336727 255.102576 
L 394.158545 283.870677 
L 398.487273 295.488 
L 398.487273 295.488 
" clip-path="url(#p0c631c572b)" style="fill: none; stroke: #17becf; stroke-width: 1.5; stroke-linecap: square"/>
   </g>
   <g id="line2d_25">
    <path d="M 73.832727 295.488 
L 88.983273 257.152472 
L 97.640727 235.830731 
L 104.133818 220.321725 
L 110.626909 205.338164 
L 117.12 190.969519 
L 123.613091 177.293218 
L 127.941818 168.592681 
L 132.270545 160.244499 
L 136.599273 152.261708 
L 140.928 144.654652 
L 145.256727 137.431048 
L 149.585455 130.596074 
L 153.914182 124.152497 
L 158.242909 118.100833 
L 162.571636 112.439527 
L 166.900364 107.165164 
L 171.229091 102.272691 
L 175.557818 97.755659 
L 179.886545 93.606471 
L 184.215273 89.816642 
L 188.544 86.377052 
L 192.872727 83.278206 
L 197.201455 80.51048 
L 201.530182 78.064361 
L 205.858909 75.930676 
L 210.187636 74.100798 
L 214.516364 72.566843 
L 218.845091 71.32184 
L 223.173818 70.359875 
L 227.502545 69.67622 
L 231.831273 69.267426 
L 236.16 69.131396 
L 240.488727 69.267426 
L 244.817455 69.67622 
L 249.146182 70.359875 
L 253.474909 71.32184 
L 257.803636 72.566843 
L 262.132364 74.100798 
L 266.461091 75.930676 
L 270.789818 78.064361 
L 275.118545 80.51048 
L 279.447273 83.278206 
L 283.776 86.377052 
L 288.104727 89.816642 
L 292.433455 93.606471 
L 296.762182 97.755659 
L 301.090909 102.272691 
L 305.419636 107.165164 
L 309.748364 112.439527 
L 314.077091 118.100833 
L 318.405818 124.152497 
L 322.734545 130.596074 
L 327.063273 137.431048 
L 331.392 144.654652 
L 335.720727 152.261708 
L 340.049455 160.244499 
L 344.378182 168.592681 
L 348.706909 177.293218 
L 355.2 190.969519 
L 361.693091 205.338164 
L 368.186182 220.321725 
L 374.679273 235.830731 
L 383.336727 257.152472 
L 394.158545 284.467662 
L 398.487273 295.488 
L 398.487273 295.488 
" clip-path="url(#p0c631c572b)" style="fill: none; stroke: #1f77b4; stroke-width: 1.5; stroke-linecap: square"/>
   </g>
   <g id="patch_3">
    <path d="M 57.6 307.584 
L 57.6 41.472 
" style="fill: none; stroke: #000000; stroke-width: 0.8; stroke-linejoin: miter; stroke-linecap: square"/>
   </g>
   <g id="patch_4">
    <path d="M 414.72 307.584 
L 414.72 41.472 
" style="fill: none; stroke: #000000; stroke-width: 0.8; stroke-linejoin: miter; stroke-linecap: square"/>
   </g>
   <g id="patch_5">
    <path d="M 57.6 307.584 
L 414.72 307.584 
" style="fill: none; stroke: #000000; stroke-width: 0.8; stroke-linejoin: miter; stroke-linecap: square"/>
   </g>
   <g id="patch_6">
    <path d="M 57.6 41.472 
L 414.72 41.472 
" style="fill: none; stroke: #000000; stroke-width: 0.8; stroke-linejoin: miter; stroke-linecap: square"/>
   </g>
   <g id="legend_1">
    <g id="patch_7">
     <path d="M 202.780313 302.584 
L 269.539688 302.584 
Q 271.539688 302.584 271.539688 300.584 
L 271.539688 140.124625 
Q 271.539688 138.124625 269.539688 138.124625 
L 202.780313 138.124625 
Q 200.780313 138.124625 200.780313 140.124625 
L 200.780313 300.584 
Q 200.780313 302.584 202.780313 302.584 
z
" style="fill: #ffffff; opacity: 0.8; stroke: #cccccc; stroke-linejoin: miter"/>
    </g>
    <g id="line2d_26">
     <path d="M 204.780313 146.223062 
L 214.780313 146.223062 
L 224.780313 146.223062 
" style="fill: none; stroke: #1f77b4; stroke-width: 1.5; stroke-linecap: square"/>
    </g>
    <g id="text_17">
     <!-- 0 min -->
     <g transform="translate(232.780313 149.723062) scale(0.1 -0.1)">
      <use xlink:href="#DejaVuSans-30"/>
      <use xlink:href="#DejaVuSans-20" x="63.623047"/>
      <use xlink:href="#DejaVuSans-6d" x="95.410156"/>
      <use xlink:href="#DejaVuSans-69" x="192.822266"/>
      <use xlink:href="#DejaVuSans-6e" x="220.605469"/>
     </g>
    </g>
    <g id="line2d_27">
     <path d="M 204.780313 160.901188 
L 214.780313 160.901188 
L 224.780313 160.901188 
" style="fill: none; stroke: #ff7f0e; stroke-width: 1.5; stroke-linecap: square"/>
    </g>
    <g id="text_18">
     <!-- 30 min -->
     <g transform="translate(232.780313 164.401188) scale(0.1 -0.1)">
      <defs>
       <path id="DejaVuSans-33" d="M 2597 2516 
Q 3050 2419 3304 2112 
Q 3559 1806 3559 1356 
Q 3559 666 3084 287 
Q 2609 -91 1734 -91 
Q 1441 -91 1130 -33 
Q 819 25 488 141 
L 488 750 
Q 750 597 1062 519 
Q 1375 441 1716 441 
Q 2309 441 2620 675 
Q 2931 909 2931 1356 
Q 2931 1769 2642 2001 
Q 2353 2234 1838 2234 
L 1294 2234 
L 1294 2753 
L 1863 2753 
Q 2328 2753 2575 2939 
Q 2822 3125 2822 3475 
Q 2822 3834 2567 4026 
Q 2313 4219 1838 4219 
Q 1578 4219 1281 4162 
Q 984 4106 628 3988 
L 628 4550 
Q 988 4650 1302 4700 
Q 1616 4750 1894 4750 
Q 2613 4750 3031 4423 
Q 3450 4097 3450 3541 
Q 3450 3153 3228 2886 
Q 3006 2619 2597 2516 
z
" transform="scale(0.015625)"/>
      </defs>
      <use xlink:href="#DejaVuSans-33"/>
      <use xlink:href="#DejaVuSans-30" x="63.623047"/>
      <use xlink:href="#DejaVuSans-20" x="127.246094"/>
      <use xlink:href="#DejaVuSans-6d" x="159.033203"/>
      <use xlink:href="#DejaVuSans-69" x="256.445312"/>
      <use xlink:href="#DejaVuSans-6e" x="284.228516"/>
     </g>
    </g>
    <g id="line2d_28">
     <path d="M 204.780313 175.579313 
L 214.780313 175.579313 
L 224.780313 175.579313 
" style="fill: none; stroke: #2ca02c; stroke-width: 1.5; stroke-linecap: square"/>
    </g>
    <g id="text_19">
     <!-- 1 hr -->
     <g transform="translate(232.780313 179.079313) scale(0.1 -0.1)">
      <defs>
       <path id="DejaVuSans-68" d="M 3513 2113 
L 3513 0 
L 2938 0 
L 2938 2094 
Q 2938 2591 2744 2837 
Q 2550 3084 2163 3084 
Q 1697 3084 1428 2787 
Q 1159 2491 1159 1978 
L 1159 0 
L 581 0 
L 581 4863 
L 1159 4863 
L 1159 2956 
Q 1366 3272 1645 3428 
Q 1925 3584 2291 3584 
Q 2894 3584 3203 3211 
Q 3513 2838 3513 2113 
z
" transform="scale(0.015625)"/>
      </defs>
      <use xlink:href="#DejaVuSans-31"/>
      <use xlink:href="#DejaVuSans-20" x="63.623047"/>
      <use xlink:href="#DejaVuSans-68" x="95.410156"/>
      <use xlink:href="#DejaVuSans-72" x="158.789062"/>
     </g>
    </g>
    <g id="line2d_29">
     <path d="M 204.780313 190.257438 
L 214.780313 190.257438 
L 224.780313 190.257438 
" style="fill: none; stroke: #d62728; stroke-width: 1.5; stroke-linecap: square"/>
    </g>
    <g id="text_20">
     <!-- 1.5 hr -->
     <g transform="translate(232.780313 193.757438) scale(0.1 -0.1)">
      <defs>
       <path id="DejaVuSans-2e" d="M 684 794 
L 1344 794 
L 1344 0 
L 684 0 
L 684 794 
z
" transform="scale(0.015625)"/>
       <path id="DejaVuSans-35" d="M 691 4666 
L 3169 4666 
L 3169 4134 
L 1269 4134 
L 1269 2991 
Q 1406 3038 1543 3061 
Q 1681 3084 1819 3084 
Q 2600 3084 3056 2656 
Q 3513 2228 3513 1497 
Q 3513 744 3044 326 
Q 2575 -91 1722 -91 
Q 1428 -91 1123 -41 
Q 819 9 494 109 
L 494 744 
Q 775 591 1075 516 
Q 1375 441 1709 441 
Q 2250 441 2565 725 
Q 2881 1009 2881 1497 
Q 2881 1984 2565 2268 
Q 2250 2553 1709 2553 
Q 1456 2553 1204 2497 
Q 953 2441 691 2322 
L 691 4666 
z
" transform="scale(0.015625)"/>
      </defs>
      <use xlink:href="#DejaVuSans-31"/>
      <use xlink:href="#DejaVuSans-2e" x="63.623047"/>
      <use xlink:href="#DejaVuSans-35" x="95.410156"/>
      <use xlink:href="#DejaVuSans-20" x="159.033203"/>
      <use xlink:href="#DejaVuSans-68" x="190.820312"/>
      <use xlink:href="#DejaVuSans-72" x="254.199219"/>
     </g>
    </g>
    <g id="line2d_30">
     <path d="M 204.780313 204.935563 
L 214.780313 204.935563 
L 224.780313 204.935563 
" style="fill: none; stroke: #9467bd; stroke-width: 1.5; stroke-linecap: square"/>
    </g>
    <g id="text_21">
     <!-- 2 hr -->
     <g transform="translate(232.780313 208.435563) scale(0.1 -0.1)">
      <use xlink:href="#DejaVuSans-32"/>
      <use xlink:href="#DejaVuSans-20" x="63.623047"/>
      <use xlink:href="#DejaVuSans-68" x="95.410156"/>
      <use xlink:href="#DejaVuSans-72" x="158.789062"/>
     </g>
    </g>
    <g id="line2d_31">
     <path d="M 204.780313 219.613688 
L 214.780313 219.613688 
L 224.780313 219.613688 
" style="fill: none; stroke: #8c564b; stroke-width: 1.5; stroke-linecap: square"/>
    </g>
    <g id="text_22">
     <!-- 2.5 hr -->
     <g transform="translate(232.780313 223.113688) scale(0.1 -0.1)">
      <use xlink:href="#DejaVuSans-32"/>
      <use xlink:href="#DejaVuSans-2e" x="63.623047"/>
      <use xlink:href="#DejaVuSans-35" x="95.410156"/>
      <use xlink:href="#DejaVuSans-20" x="159.033203"/>
      <use xlink:href="#DejaVuSans-68" x="190.820312"/>
      <use xlink:href="#DejaVuSans-72" x="254.199219"/>
     </g>
    </g>
    <g id="line2d_32">
     <path d="M 204.780313 234.291812 
L 214.780313 234.291812 
L 224.780313 234.291812 
" style="fill: none; stroke: #e377c2; stroke-width: 1.5; stroke-linecap: square"/>
    </g>
    <g id="text_23">
     <!-- 3 hr -->
     <g transform="translate(232.780313 237.791812) scale(0.1 -0.1)">
      <use xlink:href="#DejaVuSans-33"/>
      <use xlink:href="#DejaVuSans-20" x="63.623047"/>
      <use xlink:href="#DejaVuSans-68" x="95.410156"/>
      <use xlink:href="#DejaVuSans-72" x="158.789062"/>
     </g>
    </g>
    <g id="line2d_33">
     <path d="M 204.780313 248.969938 
L 214.780313 248.969938 
L 224.780313 248.969938 
" style="fill: none; stroke: #7f7f7f; stroke-width: 1.5; stroke-linecap: square"/>
    </g>
    <g id="text_24">
     <!-- 3.5 hr -->
     <g transform="translate(232.780313 252.469938) scale(0.1 -0.1)">
      <use xlink:href="#DejaVuSans-33"/>
      <use xlink:href="#DejaVuSans-2e" x="63.623047"/>
      <use xlink:href="#DejaVuSans-35" x="95.410156"/>
      <use xlink:href="#DejaVuSans-20" x="159.033203"/>
      <use xlink:href="#DejaVuSans-68" x="190.820312"/>
      <use xlink:href="#DejaVuSans-72" x="254.199219"/>
     </g>
    </g>
    <g id="line2d_34">
     <path d="M 204.780313 263.648062 
L 214.780313 263.648062 
L 224.780313 263.648062 
" style="fill: none; stroke: #bcbd22; stroke-width: 1.5; stroke-linecap: square"/>
    </g>
    <g id="text_25">
     <!-- 4 hr -->
     <g transform="translate(232.780313 267.148062) scale(0.1 -0.1)">
      <use xlink:href="#DejaVuSans-34"/>
      <use xlink:href="#DejaVuSans-20" x="63.623047"/>
      <use xlink:href="#DejaVuSans-68" x="95.410156"/>
      <use xlink:href="#DejaVuSans-72" x="158.789062"/>
     </g>
    </g>
    <g id="line2d_35">
     <path d="M 204.780313 278.326187 
L 214.780313 278.326187 
L 224.780313 278.326187 
" style="fill: none; stroke: #17becf; stroke-width: 1.5; stroke-linecap: square"/>
    </g>
    <g id="text_26">
     <!-- 4.5 hr -->
     <g transform="translate(232.780313 281.826187) scale(0.1 -0.1)">
      <use xlink:href="#DejaVuSans-34"/>
      <use xlink:href="#DejaVuSans-2e" x="63.623047"/>
      <use xlink:href="#DejaVuSans-35" x="95.410156"/>
      <use xlink:href="#DejaVuSans-20" x="159.033203"/>
      <use xlink:href="#DejaVuSans-68" x="190.820312"/>
      <use xlink:href="#DejaVuSans-72" x="254.199219"/>
     </g>
    </g>
    <g id="line2d_36">
     <path d="M 204.780313 293.004312 
L 214.780313 293.004312 
L 224.780313 293.004312 
" style="fill: none; stroke: #1f77b4; stroke-width: 1.5; stroke-linecap: square"/>
    </g>
    <g id="text_27">
     <!-- 5 hr -->
     <g transform="translate(232.780313 296.504312) scale(0.1 -0.1)">
      <use xlink:href="#DejaVuSans-35"/>
      <use xlink:href="#DejaVuSans-20" x="63.623047"/>
      <use xlink:href="#DejaVuSans-68" x="95.410156"/>
      <use xlink:href="#DejaVuSans-72" x="158.789062"/>
     </g>
    </g>
   </g>
  </g>
 </g>
 <defs>
  <clipPath id="p0c631c572b">
   <rect x="57.6" y="41.472" width="357.12" height="266.112"/>
  </clipPath>
 </defs>
</svg>
